<?xml version="1.0" encoding="UTF-8"?>
<svg xmlns="http://www.w3.org/2000/svg" xmlns:xlink="http://www.w3.org/1999/xlink" width="375pt" height="374.999991pt" viewBox="0 0 375 374.999991" version="1.2">
<defs>
<clipPath id="clip1">
  <path d="M 273.644531 212 L 369.476562 212 L 369.476562 319.929688 L 273.644531 319.929688 Z M 273.644531 212 "/>
</clipPath>
<clipPath id="clip2">
  <path d="M 5.726562 37.621094 L 324 37.621094 L 324 323.898438 L 5.726562 323.898438 Z M 5.726562 37.621094 "/>
</clipPath>
</defs>
<g id="surface1">
<g clip-path="url(#clip1)" clip-rule="nonzero">
<path style=" stroke:none;fill-rule:nonzero;fill:rgb(23.529053%,67.449951%,68.238831%);fill-opacity:1;" d="M 315.695312 241.132812 C 315.695312 241.132812 329.492188 223.722656 327.773438 212.214844 L 334.757812 219.945312 L 338.191406 229.910156 L 334.984375 241.1875 L 363.894531 226.703125 L 363.894531 241.1875 L 349.414062 261.75 C 349.414062 261.75 368.707031 280.585938 369.507812 287.804688 L 347.8125 281.390625 L 355.824219 304.695312 L 336.589844 304.695312 L 315.695312 294.214844 L 318.902344 311.109375 L 297.203125 301.488281 L 289.992188 299.882812 L 289.992188 319.925781 L 273.902344 307.042969 L 287.585938 227.445312 L 307.679688 220.230469 L 315.695312 241.132812 "/>
</g>
<path style=" stroke:none;fill-rule:nonzero;fill:rgb(18.429565%,9.408569%,27.839661%);fill-opacity:1;" d="M 359.261719 279.785156 C 357.597656 277.953125 354.851562 277.09375 352.675781 276.121094 C 350.328125 275.089844 347.925781 274.175781 345.460938 273.601562 C 344.835938 273.429688 344.375 274.347656 345.003906 274.6875 C 347.464844 276.003906 350.042969 277.09375 352.5625 278.296875 C 354.621094 279.269531 356.570312 280.585938 358.859375 280.929688 C 359.375 280.988281 359.546875 280.1875 359.261719 279.785156 Z M 356.113281 238.269531 C 350.960938 242.335938 346.609375 247.660156 342.886719 253.101562 C 342.257812 254.019531 343.6875 254.761719 344.316406 253.960938 C 348.269531 248.75 352.734375 244.109375 357.140625 239.355469 C 357.828125 238.613281 356.855469 237.699219 356.113281 238.269531 Z M 307.335938 251.667969 C 306.878906 243.652344 305.160156 234.835938 302.8125 227.21875 C 302.355469 225.785156 300.46875 226.417969 300.636719 227.789062 C 301.726562 235.691406 303.386719 244.167969 305.5625 251.898438 C 305.847656 252.871094 307.394531 252.699219 307.335938 251.667969 Z M 305.621094 291.984375 C 304.015625 290.378906 302.699219 288.488281 301.210938 286.714844 C 300.808594 286.199219 299.835938 286.773438 300.066406 287.402344 C 301.726562 291.582031 305.90625 296.046875 310.082031 297.765625 C 310.886719 298.109375 311.515625 296.90625 310.886719 296.335938 C 309.226562 294.847656 307.277344 293.644531 305.621094 291.984375 Z M 341.628906 288.429688 C 341.800781 289.40625 340.769531 289.980469 340.023438 289.40625 C 337.449219 287.285156 335.84375 283.507812 333.898438 280.757812 C 331.496094 277.324219 328.859375 274.058594 326.171875 270.796875 C 325.941406 270.511719 325.941406 270.222656 326 269.992188 C 325.425781 270.050781 324.910156 270.105469 324.339844 270.164062 C 317.238281 270.679688 310.429688 271.253906 303.386719 272.226562 C 302.414062 272.34375 301.613281 271.023438 302.640625 270.511719 C 307.222656 268.273438 312.144531 267.875 317.183594 267.703125 C 319.1875 263.582031 321.417969 259.6875 322.792969 255.21875 C 324.167969 250.980469 324.679688 246.6875 325.597656 242.335938 C 325.769531 241.417969 327.203125 241.648438 327.203125 242.566406 C 327.316406 250.867188 324.109375 260.71875 319.074219 267.648438 C 325.597656 267.53125 332.183594 267.589844 338.191406 264.609375 C 339.164062 264.152344 340.023438 265.527344 339.050781 266.042969 C 335.386719 268.101562 331.550781 269.25 327.488281 269.820312 C 330.636719 272.628906 333.441406 275.71875 335.960938 279.097656 C 338.078125 281.789062 341.054688 285.054688 341.628906 288.429688 "/>
<g clip-path="url(#clip2)" clip-rule="nonzero">
<path style=" stroke:none;fill-rule:nonzero;fill:rgb(77.648926%,18.03894%,39.608765%);fill-opacity:1;" d="M 66.894531 77.015625 C 66.894531 77.015625 69.300781 37.617188 104.679688 37.617188 C 140.058594 37.617188 145.667969 57.316406 145.667969 57.316406 C 145.667969 57.316406 153.683594 40.023438 172.175781 42.429688 C 190.667969 44.835938 201.886719 46.4375 209.15625 77.015625 C 209.15625 77.015625 241.332031 55.3125 259.765625 73.808594 C 278.195312 92.304688 291.9375 122.828125 277.453125 138.113281 C 277.453125 138.113281 330.523438 151 323.25 183.925781 C 315.980469 216.851562 308.769531 228.136719 279.859375 228.136719 C 279.859375 228.136719 316.839844 258.710938 303.957031 282.019531 C 291.078125 305.324219 257.359375 314.199219 249.289062 310.9375 C 241.273438 307.730469 228.390625 293.242188 228.390625 293.242188 C 228.390625 293.242188 210.703125 316.546875 186.601562 318.152344 C 162.5 319.757812 164.101562 330.234375 144.8125 318.152344 C 125.519531 306.070312 113.4375 295.648438 113.4375 295.648438 C 113.4375 295.648438 50.8125 310.136719 35.527344 275.605469 C 20.238281 241.074219 35.527344 216.910156 35.527344 216.910156 C 35.527344 216.910156 7.417969 208.035156 5.8125 187.132812 C 4.210938 166.230469 25.105469 142.125 25.105469 142.125 C 25.105469 142.125 -12.679688 81.828125 66.894531 77.015625 "/>
</g>
<path style=" stroke:none;fill-rule:nonzero;fill:rgb(100%,100%,100%);fill-opacity:1;" d="M 134.507812 139.71875 C 138.742188 137.886719 165.019531 126.835938 190.953125 142.753906 C 197.136719 146.535156 218.945312 159.933594 220.550781 185.585938 C 222.207031 212.214844 200.742188 229.050781 199.195312 230.253906 C 177.957031 246.285156 151.050781 238.269531 135.652344 227.847656 C 117.730469 215.765625 98.441406 189.078125 105.480469 166.289062 C 110.460938 150.257812 126.148438 143.386719 134.507812 139.71875 "/>
<path style=" stroke:none;fill-rule:nonzero;fill:rgb(23.529053%,67.449951%,68.238831%);fill-opacity:1;" d="M 128.324219 237.925781 C 122.769531 244.742188 117.046875 252.929688 115.441406 261.75 C 115.328125 262.375 116.1875 262.835938 116.53125 262.207031 C 120.480469 254.019531 123.570312 246.113281 129.355469 238.957031 C 129.925781 238.210938 128.894531 237.179688 128.324219 237.925781 Z M 151.453125 247.773438 C 147.902344 256.535156 143.835938 266.386719 142.75 275.832031 C 142.632812 276.75 143.953125 276.75 144.238281 276.003906 C 147.902344 267.128906 149.960938 257.28125 152.9375 248.175781 C 153.226562 247.203125 151.792969 246.859375 151.453125 247.773438 Z M 178.527344 252.242188 C 179.160156 261.75 179.21875 272.167969 181.964844 281.332031 C 182.195312 282.078125 183.339844 281.960938 183.339844 281.160156 C 183.28125 271.597656 180.933594 261.804688 179.960938 252.242188 C 179.902344 251.382812 178.472656 251.328125 178.527344 252.242188 Z M 199.769531 243.425781 C 199.082031 242.792969 197.996094 243.824219 198.738281 244.453125 C 205.953125 251.382812 211.390625 259.511719 217.972656 266.957031 C 218.433594 267.53125 219.230469 266.789062 218.945312 266.214844 C 214.597656 257.453125 206.867188 249.949219 199.769531 243.425781 Z M 245.625 239.929688 C 241.101562 236.894531 235.832031 234.835938 231.082031 232.144531 C 226.273438 229.449219 221.582031 226.53125 217 223.496094 C 216.253906 222.980469 215.625 224.183594 216.3125 224.640625 C 224.902344 230.824219 234.859375 238.15625 245.164062 240.902344 C 245.851562 241.132812 246.136719 240.273438 245.625 239.929688 Z M 253.695312 210.496094 C 246.769531 207.691406 238.925781 206.542969 231.539062 205.515625 C 230.738281 205.398438 230.394531 206.601562 231.199219 206.71875 C 238.753906 207.863281 245.964844 209.980469 253.410156 211.46875 C 254.039062 211.585938 254.265625 210.726562 253.695312 210.496094 Z M 256.042969 185.472656 C 256.558594 185.414062 256.730469 184.671875 256.15625 184.5 C 249.402344 183.011719 241.84375 183.238281 234.976562 183.066406 C 234.117188 183.066406 234.117188 184.328125 234.976562 184.441406 C 241.789062 185.015625 249.230469 186.160156 256.042969 185.472656 Z M 229.25 166.519531 C 238.984375 163.542969 248.199219 159.53125 256.960938 154.433594 C 257.703125 153.980469 257.015625 152.832031 256.269531 153.289062 C 247.457031 158.042969 238.355469 162.109375 228.910156 165.375 C 228.164062 165.546875 228.503906 166.746094 229.25 166.519531 Z M 219.058594 141.894531 C 218.488281 142.753906 219.804688 143.5 220.378906 142.695312 C 226.503906 133.992188 234.003906 127.351562 241.445312 119.964844 C 241.960938 119.449219 241.273438 118.53125 240.644531 118.933594 C 231.828125 124.429688 224.730469 133.363281 219.058594 141.894531 Z M 194.617188 128.324219 C 198.738281 120.308594 204.460938 114.179688 209.957031 107.191406 C 210.246094 106.851562 209.902344 106.277344 209.445312 106.5625 C 202.289062 111.488281 197.019531 119.90625 193.242188 127.578125 C 192.84375 128.4375 194.15625 129.238281 194.617188 128.324219 Z M 166.105469 94.765625 C 165.535156 104.101562 167.308594 113.835938 168.394531 123.113281 C 168.511719 124.03125 169.941406 124.085938 169.886719 123.113281 C 169.3125 113.777344 169.3125 103.757812 167.136719 94.652344 C 166.964844 94.082031 166.164062 94.195312 166.105469 94.765625 Z M 132.960938 100.035156 C 132.789062 99.519531 131.929688 99.578125 131.988281 100.152344 C 132.386719 107.996094 136.625 115.324219 141.660156 121.109375 C 142.175781 121.738281 143.035156 120.820312 142.519531 120.25 C 137.484375 114.179688 135.25 107.480469 132.960938 100.035156 Z M 121.167969 133.132812 C 121.738281 133.707031 122.597656 132.847656 122.082031 132.21875 C 120.023438 129.929688 117.960938 127.636719 115.957031 125.347656 C 113.957031 123.058594 112.121094 120.535156 109.832031 118.476562 C 109.257812 117.957031 108.34375 118.644531 108.746094 119.335938 C 112.007812 124.429688 116.929688 128.898438 121.167969 133.132812 Z M 87.734375 136.398438 C 92.199219 139.320312 96.609375 142.296875 101.074219 145.21875 C 101.933594 145.789062 102.675781 144.414062 101.875 143.898438 C 97.753906 141.09375 93.574219 138.230469 89.453125 135.425781 C 85.386719 132.675781 81.324219 129.296875 76.800781 127.292969 C 76.285156 127.066406 75.65625 127.695312 76.113281 128.152344 C 79.433594 131.414062 83.785156 133.765625 87.734375 136.398438 Z M 72.851562 162.28125 C 72.046875 161.996094 71.707031 163.140625 72.335938 163.542969 C 76.859375 166.746094 82.984375 167.949219 88.363281 168.410156 C 89.28125 168.464844 89.28125 167.089844 88.363281 166.976562 C 82.695312 166.40625 78.117188 164.285156 72.851562 162.28125 Z M 92.945312 198.300781 C 84.757812 200.019531 75.425781 200.820312 67.699219 204.027344 C 66.894531 204.371094 66.839844 205.800781 67.925781 205.742188 C 76.398438 205.285156 85.214844 201.964844 93.402344 199.902344 C 94.433594 199.617188 93.972656 198.070312 92.945312 198.300781 Z M 102.734375 231.972656 C 104.507812 230.882812 106.226562 229.621094 107.886719 228.304688 C 109.03125 227.390625 107.425781 225.84375 106.28125 226.703125 C 104.625 228.019531 102.847656 229.28125 101.015625 230.367188 C 99.585938 231.226562 97.753906 231.742188 96.78125 233.171875 C 96.4375 233.6875 96.894531 234.261719 97.410156 234.316406 C 99.242188 234.488281 101.246094 232.945312 102.734375 231.972656 Z M 189.808594 253.789062 C 191.066406 259.457031 191.984375 266.386719 194.730469 271.484375 C 195.1875 272.34375 196.5625 271.941406 196.503906 271.023438 C 196.449219 265.183594 193.816406 258.65625 192.210938 253.101562 C 191.753906 251.554688 189.464844 252.1875 189.808594 253.789062 Z M 93.6875 156.667969 C 82.410156 150.3125 70.789062 142.640625 58.59375 138.171875 C 57.449219 137.714844 56.9375 139.433594 57.792969 140.0625 C 68.097656 147.679688 80.921875 153.175781 92.316406 159.074219 C 93.859375 159.820312 95.234375 157.527344 93.6875 156.667969 Z M 132.789062 125.003906 C 129.8125 119.105469 127.179688 112.519531 123.34375 107.136719 C 122.882812 106.449219 121.625 106.851562 121.910156 107.710938 C 124.085938 114.066406 127.980469 120.019531 131.128906 125.976562 C 131.703125 127.066406 133.304688 126.089844 132.789062 125.003906 Z M 186.027344 99.175781 C 182.480469 106.21875 181.792969 115.726562 180.304688 123.398438 C 180.074219 124.660156 181.90625 125.175781 182.25 123.914062 C 184.199219 116.355469 187.6875 107.363281 187.460938 99.519531 C 187.402344 98.890625 186.375 98.488281 186.027344 99.175781 Z M 223.183594 157.183594 C 230.054688 152.949219 238.066406 148.9375 243.90625 143.386719 C 244.59375 142.753906 243.90625 141.324219 242.933594 141.722656 C 235.492188 144.816406 228.621094 150.484375 221.980469 155.066406 C 220.664062 155.984375 221.808594 158.042969 223.183594 157.183594 Z M 261.765625 196.296875 C 251.75 194.292969 240.871094 194.519531 230.738281 194.921875 C 229.195312 194.976562 229.136719 197.328125 230.738281 197.382812 C 240.984375 197.5 251.289062 198.527344 261.480469 198.414062 C 262.683594 198.414062 263.027344 196.523438 261.765625 196.296875 Z M 209.042969 237.753906 C 207.667969 236.265625 205.492188 238.441406 206.808594 239.988281 C 209.328125 242.851562 211.675781 245.828125 213.964844 248.917969 C 215.683594 251.210938 217.113281 254.53125 219.691406 255.847656 C 220.433594 256.25 221.695312 255.792969 221.582031 254.761719 C 221.234375 251.667969 218.605469 249.148438 216.769531 246.746094 C 214.308594 243.652344 211.734375 240.675781 209.042969 237.753906 Z M 136.335938 245.199219 C 135.421875 247.546875 134.507812 249.894531 133.589844 252.242188 C 132.789062 254.304688 131.414062 256.59375 131.703125 258.769531 C 131.816406 259.6875 132.789062 260.203125 133.535156 259.511719 C 135.191406 258.027344 135.652344 255.5625 136.394531 253.5 C 137.308594 250.980469 138.226562 248.464844 139.144531 245.941406 C 139.773438 244.167969 137.023438 243.425781 136.335938 245.199219 Z M 97.582031 218.34375 C 87.675781 223.152344 77.546875 228.363281 68.84375 235.121094 C 67.355469 236.265625 68.671875 238.84375 70.390625 237.753906 C 79.894531 231.914062 88.996094 225.726562 98.839844 220.460938 C 100.214844 219.714844 99.011719 217.65625 97.582031 218.34375 Z M 240.699219 221.71875 C 236.578125 219.660156 232.398438 217.65625 228.277344 215.652344 C 226.90625 214.964844 225.644531 217.023438 227.074219 217.769531 C 231.140625 219.886719 235.207031 222.007812 239.328125 224.125 C 242.933594 226.015625 246.597656 228.363281 250.546875 229.28125 C 251.40625 229.449219 252.207031 228.363281 251.464844 227.730469 C 248.3125 225.097656 244.363281 223.554688 240.699219 221.71875 Z M 120.652344 235.636719 C 116.757812 239.875 112.808594 244.050781 108.6875 248.117188 C 104.964844 251.78125 100.558594 255.105469 97.410156 259.226562 C 96.78125 260.085938 97.980469 261.175781 98.839844 260.660156 C 103.25 257.910156 106.855469 253.617188 110.460938 249.894531 C 114.527344 245.769531 118.417969 241.535156 122.257812 237.238281 C 123.171875 236.152344 121.625 234.605469 120.652344 235.636719 Z M 210.015625 137.886719 C 214.078125 132.847656 218.203125 127.925781 222.726562 123.285156 C 227.246094 118.644531 232.570312 114.808594 236.980469 110.113281 C 237.664062 109.371094 236.808594 108.167969 235.890625 108.683594 C 225.128906 114.921875 215.625 126.664062 208.699219 136.855469 C 208.183594 137.660156 209.445312 138.632812 210.015625 137.886719 Z M 97.808594 126.777344 C 101.761719 131.128906 105.195312 135.882812 109.949219 139.433594 C 110.921875 140.121094 112.179688 138.519531 111.207031 137.773438 C 101.933594 130.328125 96.207031 117.386719 85.160156 112.117188 C 84.527344 111.832031 83.613281 112.464844 84.128906 113.148438 C 87.90625 118.1875 93.574219 122.082031 97.808594 126.777344 Z M 164.273438 254.644531 C 163.988281 266.386719 162.785156 278.527344 163.472656 290.265625 C 163.589844 292.039062 165.992188 291.984375 166.164062 290.265625 C 167.652344 278.695312 166.792969 266.328125 166.507812 254.644531 C 166.507812 253.214844 164.332031 253.214844 164.273438 254.644531 Z M 271.441406 174.308594 C 256.5 171.785156 239.839844 174.019531 225.070312 176.597656 C 223.8125 176.824219 224.097656 179.003906 225.355469 178.832031 C 232.914062 177.855469 240.527344 177.171875 248.199219 176.769531 C 255.816406 176.425781 263.542969 177.054688 271.15625 176.539062 C 272.359375 176.539062 272.816406 174.535156 271.441406 174.308594 Z M 97.410156 179.460938 C 84.816406 180.605469 71.417969 181.179688 59.113281 184.097656 C 57.621094 184.441406 57.964844 186.734375 59.453125 186.734375 C 72.105469 186.617188 85.273438 183.925781 97.753906 182.039062 C 99.183594 181.808594 98.839844 179.34375 97.410156 179.460938 Z M 147.214844 79.707031 C 148.304688 93.679688 150.476562 107.652344 152.425781 121.507812 C 152.539062 122.367188 154.027344 122.140625 153.910156 121.28125 C 152.367188 107.363281 151.109375 93.28125 148.703125 79.476562 C 148.589844 78.675781 147.160156 78.847656 147.214844 79.707031 Z M 161.527344 231.570312 C 156.605469 235.921875 155.914062 242.21875 158.378906 245.140625 C 161.984375 249.4375 172.289062 246.460938 173.320312 242.449219 C 174.066406 239.300781 169.597656 234.148438 161.527344 231.570312 Z M 211.277344 227.503906 C 211.960938 223.667969 200.570312 216.851562 197.25 219.375 C 195.132812 220.976562 195.1875 227.21875 199.195312 230.195312 C 203.949219 233.746094 210.816406 230.253906 211.277344 227.503906 Z M 132.5625 215.765625 C 129.066406 217.597656 127.003906 222.0625 128.496094 226.1875 C 130.097656 230.539062 134.964844 232.714844 138 231.625 C 142.863281 229.851562 144.238281 218.972656 139.832031 215.765625 C 137.65625 214.21875 134.5625 214.679688 132.5625 215.765625 Z M 119.449219 192.230469 C 117.558594 193.605469 103.765625 203.738281 105.882812 208.550781 C 107.3125 211.699219 115.957031 213.417969 120.824219 208.550781 C 125.058594 204.199219 124.714844 196.46875 119.449219 192.230469 Z M 166.050781 225.273438 C 168.394531 228.820312 173.835938 229.335938 177.382812 227.105469 C 180.476562 225.097656 182.25 220.976562 180.992188 218.054688 C 179.046875 213.589844 170.058594 212.386719 166.507812 216.683594 C 164.675781 218.855469 164.273438 222.578125 166.050781 225.273438 Z M 201.3125 159.648438 C 201.886719 159.820312 213.738281 163.371094 217.171875 157.355469 C 219.230469 153.75 217.574219 147.734375 214.023438 145.617188 C 207.324219 141.550781 194.558594 151.515625 195.472656 156.039062 C 195.820312 157.929688 198.679688 158.789062 201.3125 159.648438 Z M 195.015625 209.867188 C 196.792969 210.152344 205.035156 211.414062 207.210938 207.175781 C 208.925781 203.855469 206.296875 198.585938 202.6875 196.296875 C 195.53125 191.828125 183.222656 198.644531 183.222656 203.109375 C 183.222656 206.429688 190.378906 209.179688 195.015625 209.867188 Z M 154.714844 187.246094 C 150.761719 186.445312 145.785156 190.457031 145.210938 195.378906 C 144.695312 199.789062 147.671875 204.828125 152.023438 205.34375 C 155.34375 205.742188 158.378906 203.339844 159.695312 200.820312 C 162.269531 195.835938 159.46875 188.164062 154.714844 187.246094 Z M 181.847656 189.9375 C 189.175781 186.5625 193.585938 176.425781 190.894531 173.21875 C 188.089844 169.839844 176.46875 172.417969 172.347656 179.574219 C 170.742188 182.378906 169.367188 187.476562 171.890625 189.996094 C 174.980469 193.03125 181.449219 190.109375 181.847656 189.9375 Z M 120.367188 168.695312 C 119.621094 174.078125 125.40625 179.117188 130.328125 180.894531 C 137.769531 183.582031 147.785156 180.375 149.789062 174.078125 C 150.992188 170.300781 148.816406 166.578125 148.417969 165.945312 C 144.925781 159.992188 137.425781 159.648438 136.222656 159.589844 C 130.039062 159.359375 121.167969 162.511719 120.367188 168.695312 Z M 158.777344 165.027344 C 161.355469 169.441406 168.394531 170.527344 172.804688 167.320312 C 176.582031 164.574219 178.015625 158.960938 175.953125 155.582031 C 172.976562 150.65625 162.84375 150.828125 159.238281 156.039062 C 157.519531 158.5 157.117188 162.222656 158.777344 165.027344 Z M 119.449219 154.664062 C 123.285156 158.101562 136.335938 153.175781 136.625 146.992188 C 136.796875 143.441406 132.847656 138.972656 128.035156 138.859375 C 121.910156 138.6875 119.109375 145.730469 118.992188 146.074219 C 118.191406 148.195312 117.21875 152.71875 119.449219 154.664062 Z M 158.320312 130.15625 C 164.90625 130.441406 168.394531 130.671875 170.058594 133.304688 C 171.773438 135.996094 171.144531 140.464844 168.683594 142.355469 C 165.933594 144.53125 161.757812 142.753906 156.488281 140.523438 C 155.800781 140.234375 143.4375 135.023438 144.296875 131.933594 C 144.925781 129.527344 153.167969 129.929688 158.320312 130.15625 "/>
</g>
</svg>
